<svg width="60" height="27" viewBox="0 0 60 27" fill="none" xmlns="http://www.w3.org/2000/svg">
<path d="M55.8122 4.46251C55.6774 4.31585 55.4907 4.22157 55.2729 4.22157C54.8683 4.22157 54.5468 4.54631 54.5468 4.95485C54.5468 5.14341 54.6194 5.31101 54.7335 5.44719C56.6939 7.64702 57.7727 10.4963 57.7727 13.4504C57.7727 20.0603 52.4411 25.4447 45.8959 25.4447C39.3508 25.4447 34.0192 20.0603 34.0192 13.4504C34.0192 6.84042 39.3508 1.45608 45.8959 1.45608C46.9436 1.45608 47.9705 1.59226 48.9766 1.86462C49.0389 1.87509 49.0907 1.88557 49.153 1.88557C49.5575 1.88557 49.8791 1.56083 49.8791 1.15229C49.8791 0.817079 49.6509 0.534244 49.3397 0.450441C48.2194 0.146655 47.0577 0 45.8856 0C38.5313 0 32.5566 6.03381 32.5566 13.4608C32.5566 20.8879 38.5313 26.9217 45.8856 26.9217C53.2398 26.9217 59.2249 20.8774 59.2249 13.4504C59.2249 10.1297 58.0112 6.93469 55.8122 4.46251Z" fill="#FFC700"/>
<path d="M50.6773 3.79194H51.5382V4.6614C51.5382 5.06993 51.8598 5.39467 52.2643 5.39467C52.6688 5.39467 52.9904 5.06993 52.9904 4.6614V3.79194H53.8513C54.2558 3.79194 54.5774 3.4672 54.5774 3.05866C54.5774 2.65012 54.2558 2.32539 53.8513 2.32539H52.9904V1.45593C52.9904 1.04739 52.6688 0.722656 52.2643 0.722656C51.8598 0.722656 51.5382 1.04739 51.5382 1.45593V2.32539H50.6773C50.2727 2.32539 49.9512 2.65012 49.9512 3.05866C49.9512 3.4672 50.2831 3.79194 50.6773 3.79194Z" fill="#FFC700"/>
<path d="M40.4598 14.7864C40.7087 14.4617 40.8332 14.095 40.8332 13.6655C40.8332 13.2361 40.7087 12.8694 40.4598 12.5552C40.2108 12.2409 39.8685 12.0838 39.4225 12.0838C38.9972 12.0838 38.6446 12.2514 38.3852 12.5761C38.1155 12.9008 37.9911 13.278 37.9911 13.6865C37.9911 14.095 38.1259 14.4617 38.3852 14.7864C38.6549 15.1111 38.9972 15.2683 39.4225 15.2683C39.8685 15.2787 40.2108 15.1111 40.4598 14.7864ZM36.8086 11.2248H37.9807V11.9162H38.0118C38.157 11.6857 38.3749 11.4971 38.6549 11.3295C38.9454 11.1619 39.2877 11.0781 39.7026 11.0781C40.3975 11.0781 40.968 11.3295 41.4037 11.8219C41.8497 12.3142 42.0675 12.9323 42.0675 13.676C42.0675 14.4198 41.8497 15.0378 41.4141 15.5511C40.9784 16.0539 40.3975 16.3158 39.6715 16.3158C39.3292 16.3158 39.018 16.2425 38.7275 16.0958C38.4371 15.9492 38.2089 15.7606 38.0533 15.5092H38.0326V18.6309H36.8086V11.2248Z" fill="#FFC700"/>
<path d="M44.5072 8.39062H43.2832V16.1633H44.5072V8.39062Z" fill="#FFC700"/>
<path d="M50.4451 11.2266V16.1605H49.2834V15.3643H49.2626C49.1485 15.6262 48.9514 15.8462 48.6817 16.0243C48.4017 16.2024 48.1009 16.2966 47.7482 16.2966C47.1466 16.2966 46.7006 16.1081 46.3998 15.7205C46.0989 15.3329 45.9434 14.8615 45.9434 14.3063V11.2266H47.1673V13.9606C47.1673 14.8406 47.4681 15.2805 48.0801 15.2805C48.4432 15.2805 48.7232 15.1444 48.9203 14.8825C49.1174 14.6206 49.2108 14.3063 49.2108 13.9397V11.2266H50.4451Z" fill="#FFC700"/>
<path d="M55.3787 11.8389L54.58 12.5512C54.4659 12.4046 54.3103 12.2789 54.1236 12.1741C53.9369 12.0694 53.7295 12.017 53.5116 12.017C53.2938 12.017 53.1071 12.0589 52.9619 12.1532C52.8063 12.2475 52.7337 12.3732 52.7337 12.5512C52.7337 12.7189 52.8167 12.8446 52.9723 12.9284C53.1279 13.0122 53.4079 13.096 53.8021 13.2007C54.0095 13.2531 54.1962 13.3055 54.3622 13.3683C54.5282 13.4312 54.6941 13.5255 54.8601 13.6302C55.0261 13.735 55.1505 13.8816 55.2439 14.0597C55.3372 14.2378 55.3787 14.4368 55.3787 14.6673C55.3787 15.2329 55.192 15.6415 54.8082 15.9138C54.4244 16.1862 53.9369 16.3119 53.3457 16.3119C52.9619 16.3119 52.5885 16.2386 52.2254 16.0919C51.8624 15.9453 51.5719 15.7462 51.3438 15.4948L52.1424 14.7301C52.4536 15.1387 52.8685 15.3482 53.3975 15.3482C53.605 15.3482 53.7917 15.2958 53.9473 15.2015C54.1029 15.1072 54.1859 14.9606 54.1859 14.7615C54.1859 14.573 54.1029 14.4263 53.9369 14.3321C53.771 14.2378 53.4805 14.1435 53.0656 14.0492C52.6196 13.9445 52.2773 13.7873 52.0076 13.5778C51.7483 13.3788 51.6134 13.0645 51.6134 12.6455C51.6134 12.1322 51.8001 11.7446 52.1839 11.4723C52.5677 11.1999 53.0241 11.0742 53.5531 11.0742C53.9162 11.0742 54.2689 11.1371 54.6008 11.2733C54.9327 11.4094 55.192 11.598 55.3787 11.8389Z" fill="#FFC700"/>
<path d="M0 17.6279V7.8125H1.72187V16.0776H5.86058V17.6279H0Z" fill="#225AAC"/>
<path d="M13.3884 14.3809C13.3884 14.5799 13.3884 14.7266 13.378 14.8208H8.36801C8.4095 15.2818 8.60658 15.6693 8.96963 15.9836C9.33267 16.2979 9.75795 16.455 10.2455 16.455C11.0027 16.455 11.5835 16.1722 11.9881 15.596L13.0876 16.4864C12.4341 17.3768 11.4902 17.8168 10.2558 17.8168C9.21857 17.8168 8.36801 17.5025 7.70416 16.874C7.0403 16.2455 6.71875 15.397 6.71875 14.339C6.71875 13.2705 7.05068 12.4115 7.70416 11.762C8.36801 11.1021 9.19783 10.7773 10.204 10.7773C11.1583 10.7773 11.9258 11.0916 12.5067 11.7097C13.098 12.3277 13.3884 13.2181 13.3884 14.3809ZM8.36801 13.6371H11.7495C11.7495 13.1762 11.6147 12.7886 11.3553 12.4848C11.0857 12.181 10.7019 12.0239 10.204 12.0239C9.71646 12.0239 9.30155 12.181 8.95925 12.4848C8.59621 12.7886 8.39913 13.1762 8.36801 13.6371Z" fill="#225AAC"/>
<path d="M14.7383 17.627V10.9647H16.3046V12.0331H16.3357C16.4913 11.677 16.7506 11.3837 17.1136 11.1427C17.487 10.8913 17.9123 10.7656 18.3791 10.7656C19.1882 10.7656 19.7898 11.0275 20.1943 11.5513C20.6092 12.0646 20.8167 12.7036 20.8167 13.4473V17.606H19.1674V13.9187C19.1674 12.735 18.7525 12.1484 17.9331 12.1484C17.4352 12.1484 17.0618 12.3265 16.7921 12.6931C16.5224 13.0493 16.3979 13.4683 16.3979 13.9501V17.6165H14.7383V17.627Z" fill="#225AAC"/>
<path d="M24.2369 12.7764C23.9049 13.2059 23.739 13.6982 23.739 14.2743C23.739 14.8505 23.9049 15.3533 24.2369 15.7828C24.5792 16.2123 25.0459 16.4323 25.6372 16.4323C26.218 16.4323 26.6848 16.2123 27.0375 15.7828C27.3902 15.3533 27.5769 14.8505 27.5769 14.2953C27.5769 13.7401 27.4005 13.2373 27.0375 12.7973C26.6848 12.3574 26.218 12.1269 25.6372 12.1269C25.0356 12.1374 24.5688 12.3469 24.2369 12.7764ZM29.1639 7.14062V17.6265H27.5976V16.6313H27.5665C27.3487 17.0084 27.0271 17.3017 26.6226 17.5217C26.2077 17.7207 25.772 17.8255 25.3052 17.8255C24.3302 17.8255 23.5419 17.4798 22.9403 16.7989C22.3594 16.118 22.0586 15.2695 22.0586 14.2743C22.0586 13.2792 22.3594 12.4412 22.9506 11.7812C23.5523 11.1108 24.3198 10.7861 25.2534 10.7861C26.1766 10.7861 26.913 11.1317 27.4628 11.8231H27.5043V7.1511H29.1639V7.14062Z" fill="#225AAC"/>
</svg>
